<?xml version="1.0" encoding="utf-8"?>
<!-- Generator: Adobe Illustrator 16.0.0, SVG Export Plug-In . SVG Version: 6.00 Build 0)  -->
<!DOCTYPE svg PUBLIC "-//W3C//DTD SVG 1.1//EN" "http://www.w3.org/Graphics/SVG/1.1/DTD/svg11.dtd">
<svg version="1.1" id="Layer_1" xmlns="http://www.w3.org/2000/svg" xmlns:xlink="http://www.w3.org/1999/xlink" x="0px" y="0px"
	 width="9px" height="6px" viewBox="0 0 9 6" enable-background="new 0 0 9 6" xml:space="preserve">
<path fill="#333333" d="M4.921,5.832l0.02-0.03l3.74-3.93l0.03-0.03c0.39-0.43,0.39-1.1-0.01-1.52c-0.41-0.43-1.061-0.43-1.471,0
	l-0.41,0.43l-1.889,1.99l-0.03,0.03l-0.02,0.03c-0.11,0.1-0.25,0.149-0.38,0.149s-0.271-0.05-0.38-0.149l-0.021-0.03l-0.03-0.03
	L2.18,0.752l-0.409-0.43c-0.41-0.43-1.061-0.43-1.471,0c-0.398,0.42-0.398,1.09-0.01,1.52l0.029,0.03l3.74,3.93l0.021,0.03
	c0.12,0.12,0.27,0.17,0.42,0.17C4.65,6.002,4.801,5.952,4.921,5.832z"/>
</svg>
